HIERARCHY
ROOT Hips
{
	OFFSET 0.000000 0.000000 0.000000 
	CHANNELS 6 Xposition Yposition Zposition Yrotation Zrotation Xrotation 
	JOINT Lumbar
	{
		OFFSET 0.000000 0.000000 0.000000 
		CHANNELS 3 Zrotation Xrotation Yrotation
		JOINT Neck
		{
			OFFSET 0.000000 0.445665 0.000000 
			CHANNELS 3 Zrotation Xrotation Yrotation
			End Site
			{
				OFFSET 0.000000 0.227535 0.000000 
			}
		}
		JOINT RightShoulder
		{
			OFFSET 0.019635 0.377685 0.194865 
			CHANNELS 3 Zrotation Xrotation Yrotation
			JOINT RightElbow
			{
				OFFSET 0.000000 -0.243375 0.000000 
				CHANNELS 2 Zrotation Yrotation
				JOINT RightWrist
				{
					OFFSET 0.000000 -0.264825 0.000000 
					CHANNELS 2 Zrotation Xrotation
					End Site
					{
						OFFSET 0.006600 -0.176220 0.000990 
					}
				}
			}
		}
		JOINT LeftShoulder
		{
			OFFSET 0.019635 0.377685 -0.194865 
			CHANNELS 3 Zrotation Xrotation Yrotation
			JOINT LeftElbow
			{
				OFFSET 0.000000 -0.243375 0.000000 
				CHANNELS 2 Zrotation Yrotation
				JOINT LeftWrist
				{
					OFFSET 0.000000 -0.264825 0.000000 
					CHANNELS 2 Zrotation Xrotation
					End Site
					{
						OFFSET 0.006600 -0.176220 -0.000990 
					}
				}
			}
		}
	}
	JOINT RightHip
	{
		OFFSET 0.052140 -0.069960 0.075570 
		CHANNELS 3 Zrotation Xrotation Yrotation
		JOINT RightKnee
		{
			OFFSET 0.000000 -0.402270 0.000000 
			CHANNELS 1 Zrotation
			JOINT RightAnkle
			{
				OFFSET 0.000000 -0.404085 0.000000 
				CHANNELS 3 Zrotation Xrotation Yrotation
				End Site
				{
					OFFSET 0.204105 -0.089430 0.008415 
				}
			}
		}
	}
	JOINT LeftHip
	{
		OFFSET 0.052140 -0.069960 -0.075570 
		CHANNELS 3 Zrotation Xrotation Yrotation
		JOINT LeftKnee
		{
			OFFSET 0.000000 -0.402270 0.000000 
			CHANNELS 1 Zrotation
			JOINT LeftAnkle
			{
				OFFSET 0.000000 -0.404085 0.000000 
				CHANNELS 3 Zrotation Xrotation Yrotation
				End Site
				{
					OFFSET 0.204105 -0.089430 -0.008415 
				}
			}
		}
	}
}
MOTION
Frames: 31
Frame Time: 0.02
-9e-05 -2e-05 0.00024 -176.9745 -32.08534 -2.07487 45.35315 2.16828 -4.21253 -6.11732 -2.37398 -0.356 -14.60627 -2.16686 1.96536 28.32258 127.31326 10.44853 11.482 -16.47438 5.95055 -6.31575 28.99909 -116.22792 16.21868 -4.13268 33.5978 -1.28315 -11.93243 -20.89244 -7.93048 -3.4103 -3.96277 36.73885 8.2032 5.09361 -26.97945 -8.32559 3.43725 3.98938
-0 -2e-05 0.00014 -176.98341 -32.09673 -2.07473 45.34825 2.16746 -4.22503 -6.11569 -2.37241 -0.35663 -14.58411 -2.27108 2.35882 28.31964 123.26886 9.80679 10.33202 -16.44596 5.93459 -6.3143 28.97585 -116.08791 16.1949 -4.15401 33.60554 -1.32895 -12.21758 -20.89402 -7.91072 -3.38265 -3.94769 36.75263 8.23504 5.20659 -26.97955 -8.322 3.43211 3.98599
8e-05 -3e-05 3e-05 -176.99232 -32.10808 -2.0746 45.34334 2.16664 -4.23752 -6.11405 -2.37083 -0.35725 -14.56201 -2.37487 2.75068 28.31669 119.23963 9.16745 9.18654 -16.4176 5.91868 -6.31288 28.95268 -115.94881 16.17125 -4.17536 33.61324 -1.37458 -12.50182 -20.89558 -7.89102 -3.35509 -3.93266 36.76636 8.26686 5.31947 -26.97966 -8.3184 3.42696 3.98259
0.00016 -3e-05 -8e-05 -177.00121 -32.11944 -2.07446 45.33845 2.16582 -4.24999 -6.11242 -2.36926 -0.35788 -14.53992 -2.47875 3.14284 28.31375 115.20822 8.52776 8.04029 -16.38927 5.90277 -6.31144 28.92951 -115.80931 16.14756 -4.19664 33.62096 -1.42023 -12.7861 -20.89715 -7.87131 -3.32753 -3.91762 36.78011 8.29861 5.43215 -26.97976 -8.31482 3.42183 3.97921
0.00024 -3e-05 -0.00018 -177.01008 -32.13082 -2.07431 45.33357 2.16501 -4.26247 -6.11079 -2.36768 -0.35851 -14.51777 -2.58313 3.53681 28.31081 111.16034 7.88549 6.88909 -16.36087 5.88683 -6.30996 28.90628 -115.6687 16.12369 -4.21785 33.62868 -1.46606 -13.07128 -20.89872 -7.85154 -3.29988 -3.90254 36.7939 8.33036 5.54481 -26.97987 -8.31125 3.41672 3.97583
0.00032 -3e-05 -0.00029 -177.01907 -32.14209 -2.07423 45.32859 2.16415 -4.27499 -6.10916 -2.36612 -0.35914 -14.49579 -2.68569 3.92427 28.30784 107.17038 7.25233 5.75565 -16.33259 5.87096 -6.30868 28.8832 -115.53278 16.10052 -4.23947 33.63635 -1.51127 -13.3535 -20.90026 -7.83198 -3.27252 -3.88762 36.80747 8.36233 5.65813 -26.97995 -8.30759 3.41149 3.9724
0.0004 -3e-05 -0.0004 -177.02782 -32.15364 -2.07401 45.32386 2.16341 -4.28741 -6.10752 -2.36453 -0.35976 -14.47348 -2.79173 4.32417 28.30494 103.06926 6.60167 4.58805 -16.30412 5.85496 -6.307 28.85986 -115.38764 16.07599 -4.26027 33.64418 -1.55768 -13.64145 -20.90189 -7.81201 -3.2446 -3.87239 36.82154 8.39382 5.77004 -26.9801 -8.30412 3.40651 3.96908
0.00048 -4e-05 -0.00051 -177.03678 -32.16481 -2.07391 45.31879 2.16255 -4.29991 -6.1059 -2.36297 -0.36039 -14.45148 -2.89469 4.71305 28.30199 99.06885 5.96687 3.45134 -16.27583 5.83909 -6.30567 28.83676 -115.25085 16.05269 -4.28179 33.65172 -1.60296 -13.92397 -20.9034 -7.79243 -3.21721 -3.85745 36.83501 8.42574 5.88319 -26.98016 -8.30048 3.4013 3.96566
0.00056 -4e-05 -0.00062 -177.04606 -32.17598 -2.07399 45.31375 2.16158 -4.31255 -6.10428 -2.3614 -0.36102 -14.42985 -2.99339 5.08676 28.29889 95.1975 5.35238 2.35451 -16.24772 5.82336 -6.30484 28.81393 -115.12492 16.03099 -4.30438 33.6595 -1.64697 -14.20053 -20.90492 -7.77329 -3.1904 -3.84285 36.84832 8.45829 5.99819 -26.98023 -8.29659 3.39578 3.96211
0.00065 -4e-05 -0.00072 -177.05367 -32.18855 -2.07314 45.30988 2.16133 -4.32452 -6.10257 -2.35975 -0.36161 -14.40605 -3.11511 5.54264 28.29637 90.6014 4.62379 1.03457 -16.21843 5.80673 -6.30136 28.78945 -114.93845 16.00039 -4.32136 33.66767 -1.69864 -14.51345 -20.90682 -7.7515 -3.16005 -3.82622 36.86428 8.4875 6.10356 -26.98059 -8.29404 3.39196 3.95927
0.00072 -4e-05 -0.00083 -177.06472 -32.19726 -2.07418 45.30269 2.15951 -4.33784 -6.10112 -2.35837 -0.3623 -14.38687 -3.18921 5.82842 28.29284 87.52302 4.13417 0.18129 -16.19174 5.79207 -6.30331 28.76853 -114.87845 15.98835 -4.3498 33.6739 -1.73391 -14.74828 -20.90765 -7.73539 -3.13728 -3.81393 36.87353 8.52356 6.22855 -26.98012 -8.28872 3.38462 3.95497
0.00074 -4e-05 -0.00099 -177.08591 -32.20325 -2.08088 45.29386 2.15368 -4.35548 -6.09977 -2.35699 -0.36321 -14.38022 -3.12349 5.61523 28.28486 88.74192 4.32089 0.65392 -16.17149 5.78239 -6.32204 28.75723 -115.17892 16.02934 -4.41304 33.68451 -1.7256 -14.7778 -20.90784 -7.73435 -3.13468 -3.81325 36.87399 8.58046 6.41346 -26.97918 -8.27521 3.36707 3.94632
0.00073 -3e-05 -0.00115 -177.11044 -32.20427 -2.0894 45.28069 2.14622 -4.37433 -6.09881 -2.35598 -0.36422 -14.37827 -3.01155 5.23672 28.27622 91.45902 4.74359 1.58627 -16.154 5.77483 -6.3461 28.74972 -115.60354 16.08856 -4.48709 33.69188 -1.7005 -14.72701 -20.90663 -7.73913 -3.13984 -3.817 36.86644 8.64386 6.61679 -26.97716 -8.25906 3.34611 3.93627
0.00073 -2e-05 -0.00131 -177.13298 -32.20192 -2.09673 45.26419 2.13931 -4.3923 -6.09809 -2.35533 -0.36519 -14.37425 -2.92683 4.95548 28.26897 93.40552 5.04506 2.27919 -16.1357 5.7665 -6.36624 28.74034 -115.96308 16.13805 -4.55409 33.69378 -1.6822 -14.70747 -20.90442 -7.74155 -3.14185 -3.81891 36.85566 8.703 6.80786 -26.97437 -8.24448 3.32706 3.92709
0.00074 -2e-05 -0.00148 -177.15745 -32.22176 -2.10547 45.26858 2.13321 -4.41187 -6.09558 -2.35261 -0.3661 -14.36987 -2.81617 4.58237 28.25702 95.73891 5.4067 3.10367 -16.1155 5.75711 -6.39182 28.73086 -116.36094 16.1937 -4.63043 33.72291 -1.66758 -14.71096 -20.90868 -7.7427 -3.14219 -3.82003 36.87182 8.76774 7.01594 -26.97659 -8.22825 3.30644 3.9169
0.00073 -1e-05 -0.00163 -177.17877 -32.19617 -2.11185 45.23028 2.12504 -4.42817 -6.0969 -2.35411 -0.36718 -14.36747 -2.74812 4.359 28.2548 97.61525 5.6981 3.7608 -16.09997 5.75076 -6.40844 28.72343 -116.70651 16.2408 -4.68951 33.69715 -1.64107 -14.64613 -20.89969 -7.748 -3.14797 -3.82392 36.8325 8.82228 7.19226 -26.9685 -8.21492 3.28837 3.90852
0.00068 -0 -0.00173 -177.18983 -32.02902 -2.11016 45.059 2.11137 -4.43695 -6.10879 -2.36862 -0.36868 -14.36828 -2.81332 4.61121 28.27856 97.91475 5.74464 3.86224 -16.096 5.7497 -6.38991 28.71308 -116.89108 16.25999 -4.70086 33.49821 -1.58824 -14.42479 -20.84975 -7.76206 -3.16554 -3.83368 36.62014 8.84757 7.28256 -26.92869 -8.20953 3.27739 3.90519
0.00062 1e-05 -0.0018 -177.19765 -31.81933 -2.10625 44.84762 2.09567 -4.44203 -6.12453 -2.38702 -0.37035 -14.37101 -2.92232 5.01586 28.31224 97.69488 5.71139 3.77651 -16.09669 5.75227 -6.36416 28.70653 -117.01468 16.26975 -4.69374 33.24809 -1.5237 -14.13587 -20.78735 -7.7803 -3.18849 -3.84615 36.3561 8.86232 7.33933 -26.87912 -8.20727 3.26921 3.90377
0.00057 2e-05 -0.00189 -177.20754 -31.64071 -2.1041 44.66564 2.08102 -4.44767 -6.1384 -2.40285 -0.37193 -14.37374 -3.00835 5.33654 28.34222 97.67519 5.70956 3.76288 -16.09572 5.75469 -6.34727 28.70271 -117.15898 16.28392 -4.69365 33.0364 -1.46283 -13.86878 -20.73386 -7.7975 -3.20989 -3.85785 36.13025 8.88146 7.4071 -26.83636 -8.20409 3.2603 3.90166
0.00049 2e-05 -0.00197 -177.21537 -31.41322 -2.09884 44.43768 2.06587 -4.4582 -6.15268 -2.42249 -0.37351 -14.37344 -3.10526 5.71337 28.36917 97.84901 5.73469 3.81668 -16.09314 5.7502 -6.30574 28.6784 -117.34319 16.29886 -4.70064 32.76152 -1.40794 -13.6334 -20.66693 -7.81143 -3.22801 -3.86791 35.84281 8.90224 7.49245 -26.78379 -8.19879 3.24911 3.8988
0.00047 4e-05 -0.00207 -177.22622 -31.27641 -2.0995 44.29431 2.05118 -4.45752 -6.16717 -2.4346 -0.37518 -14.37923 -3.1911 6.01176 28.40426 97.4897 5.68381 3.68379 -16.09471 5.76175 -6.31534 28.69991 -117.42069 16.30891 -4.68719 32.60492 -1.33857 -13.3207 -20.62467 -7.83289 -3.25385 -3.88182 35.6705 8.91735 7.53418 -26.74904 -8.19858 3.24323 3.8979
0.00053 0.00016 -0.00221 -177.24995 -31.40976 -2.11707 44.40892 2.03943 -4.42796 -6.17988 -2.42924 -0.37683 -14.4063 -3.23088 6.05495 28.4636 95.67141 5.42321 3.04371 -16.10808 5.80959 -6.45417 28.82659 -117.28457 16.31493 -4.63203 32.79845 -1.22738 -12.77906 -20.65684 -7.87585 -3.30215 -3.907 35.83761 8.91648 7.45343 -26.76847 -8.21256 3.25265 3.9026
0.00065 0.0003 -0.00237 -177.27608 -31.63419 -2.14066 44.60717 2.02802 -4.38702 -6.1929 -2.41543 -0.37866 -14.43819 -3.25911 6.01466 28.52973 93.35067 5.09163 2.22763 -16.12468 5.87467 -6.6471 29.00249 -117.03211 16.31517 -4.55524 33.11096 -1.10296 -12.16809 -20.7137 -7.92591 -3.35755 -3.93571 36.12092 8.91079 7.33189 -26.80571 -8.2314 3.26705 3.90908
0.00077 0.00043 -0.00252 -177.29865 -31.81072 -2.1615 44.75784 2.01571 -4.35054 -6.20676 -2.40258 -0.38045 -14.46497 -3.29605 6.01469 28.59032 91.32395 4.80363 1.5134 -16.13942 5.93662 -6.82441 29.16995 -116.78648 16.31294 -4.48121 33.36155 -0.9878 -11.61049 -20.75707 -7.97154 -3.40802 -3.96193 36.34501 8.90916 7.23545 -26.8331 -8.24745 3.27832 3.91435
0.00078 0.00055 -0.00266 -177.33163 -32.01296 -2.18236 44.94829 2.00646 -4.31697 -6.21676 -2.40174 -0.38179 -14.50534 -3.32004 6.01128 28.66267 88.99274 4.46381 0.69753 -16.15798 5.97923 -6.96419 29.28108 -116.72528 16.33089 -4.43521 33.64264 -0.85862 -10.95906 -20.80944 -8.02234 -3.46579 -3.99198 36.59361 8.89919 7.10959 -26.86749 -8.26607 3.29343 3.92145
0.00103 0.0007 -0.00283 -177.3434 -32.18422 -2.20456 45.07527 1.99098 -4.27465 -6.23466 -2.37418 -0.38444 -14.51706 -3.36748 5.99145 28.71066 87.1956 4.21782 0.05781 -16.16681 6.06566 -7.19437 29.51827 -116.26301 16.30684 -4.32741 33.89017 -0.75555 -10.48638 -20.84927 -8.06409 -3.51006 -4.0149 36.8204 8.90566 7.03647 -26.89173 -8.28043 3.30159 3.92508
0.00182 0.00093 -0.00305 -177.29722 -32.24433 -2.22966 45.01443 1.95794 -4.21123 -6.27574 -2.27203 -0.38799 -14.46086 -3.48434 5.96195 28.70185 86.88465 4.23272 -0.08662 -16.16882 6.27309 -7.66728 30.11586 -114.63785 16.15756 -4.04197 34.00728 -0.72896 -10.53488 -20.84688 -8.07837 -3.51447 -4.01673 36.95049 8.95801 7.11255 -26.88298 -8.28231 3.29014 3.91904
0.00286 0.00118 -0.00329 -177.22938 -32.27078 -2.25575 44.88504 1.9187 -4.13941 -6.32453 -2.14393 -0.39333 -14.37335 -3.62479 5.91556 28.66647 87.14886 4.34734 -0.04139 -16.15679 6.52317 -8.22813 30.83367 -112.62994 15.96839 -3.69769 34.08829 -0.72904 -10.76434 -20.83135 -8.08343 -3.50515 -4.01133 37.0563 9.02718 7.24429 -26.86354 -8.27967 3.27137 3.90937
0.00382 0.00141 -0.00352 -177.17075 -32.31529 -2.28098 44.78266 1.8825 -4.07121 -6.3688 -2.02939 -0.39965 -14.292 -3.75285 5.86567 28.6346 87.22903 4.42742 -0.05848 -16.13781 6.75094 -8.74465 31.48095 -110.85139 15.80435 -3.38818 34.19188 -0.71613 -10.90397 -20.82294 -8.09321 -3.50266 -4.00958 37.17886 9.08925 7.35513 -26.84949 -8.27876 3.25541 3.9011
0.00461 0.00165 -0.00374 -177.11504 -32.35203 -2.30824 44.70268 1.84535 -4.00324 -6.41722 -1.9065 -0.39852 -14.2448 -3.88701 5.85862 28.63703 86.97685 4.46127 -0.17872 -16.17619 6.99179 -9.28165 32.19861 -108.83101 15.60998 -3.04304 34.27392 -0.7061 -11.07195 -20.81061 -8.10102 -3.49802 -4.00649 37.28166 9.14914 7.44667 -26.83394 -8.27928 3.24177 3.89392
0.00584 0.00189 -0.004 -177.04786 -32.39486 -2.33132 44.55617 1.80874 -3.93318 -6.45903 -1.79569 -0.41318 -14.11907 -4.01493 5.76132 28.56425 87.545 4.61379 -0.04165 -16.09053 7.21516 -9.79599 32.79563 -107.2297 15.4701 -2.75963 34.39025 -0.69697 -11.22632 -20.8029 -8.11062 -3.4944 -4.00436 37.41793 9.21726 7.59129 -26.81859 -8.27582 3.22156 3.88362
